<?xml version="1.0" encoding="UTF-8" standalone="no"?>
<svg
   xmlns:dc="http://purl.org/dc/elements/1.1/"
   xmlns:cc="http://creativecommons.org/ns#"
   xmlns:rdf="http://www.w3.org/1999/02/22-rdf-syntax-ns#"
   xmlns:svg="http://www.w3.org/2000/svg"
   xmlns="http://www.w3.org/2000/svg"
   xmlns:sodipodi="http://sodipodi.sourceforge.net/DTD/sodipodi-0.dtd"
   xmlns:inkscape="http://www.inkscape.org/namespaces/inkscape"
   version="1.1"
   id="svg2"
   xml:space="preserve"
   width="3669.1333"
   height="604.71198"
   viewBox="0 0 3669.1333 604.71198"
   sodipodi:docname="UKRI_STFC_HORIZONTAL_SCIENTIFIC_COMPUTING_WHITETEXT_RGB.ai"><metadata
     id="metadata8"><rdf:RDF><cc:Work
         rdf:about=""><dc:format>image/svg+xml</dc:format><dc:type
           rdf:resource="http://purl.org/dc/dcmitype/StillImage" /></cc:Work></rdf:RDF></metadata><defs
     id="defs6"><clipPath
       clipPathUnits="userSpaceOnUse"
       id="clipPath20"><path
         d="M 0,453.534 H 2751.854 V 0 H 0 Z"
         id="path18" /></clipPath></defs><sodipodi:namedview
     pagecolor="#ffffff"
     bordercolor="#666666"
     borderopacity="1"
     objecttolerance="10"
     gridtolerance="10"
     guidetolerance="10"
     inkscape:pageopacity="0"
     inkscape:pageshadow="2"
     inkscape:window-width="640"
     inkscape:window-height="480"
     id="namedview4" /><g
     id="g10"
     inkscape:groupmode="layer"
     inkscape:label="UKRI_STFC_HORIZONTAL_SCIENTIFIC_COMPUTING_WHITETEXT_RGB"
     transform="matrix(1.3333333,0,0,-1.3333333,0,604.712)"><path
       d="M 368.503,85.035 H 85.04 v 283.463 h 283.463 z"
       style="fill:#2e2d62;fill-opacity:1;fill-rule:nonzero;stroke:none"
       id="path12" /><g
       id="g14"><g
         id="g16"
         clip-path="url(#clipPath20)"><g
           id="g22"
           transform="translate(304.2553,226.7673)"><path
             d="M 0,0 H -44.433 V 47.447 Z M -38.742,-88.209 H -77.484 V -103.7 l -27.269,35.739 c 20.762,3.822 31.484,14.558 31.484,33.253 0,4.613 -0.66,8.731 -1.955,12.382 h 36.482 z m -116.227,65.883 h 30.241 c 12.433,0 17.471,-4.819 17.471,-12.382 0,-7.563 -5.038,-12.536 -17.471,-12.536 h -30.241 z m 77.485,56.141 v -51.281 c -7.037,11.883 -23.223,17.402 -47.244,17.462 21.435,2.177 41.251,13.741 47.244,33.819 M 33.051,110.536 H 0 L -44.433,63.219 v 47.317 H -108.64 V 47.724 c 0,-13.447 -9.956,-21.254 -23.164,-21.254 -13.208,0 -23.165,7.807 -23.165,21.254 v 62.812 h -33.052 V 47.244 c 0,-28.346 22.886,-44.606 48.702,-47.244 h -48.702 v -110.536 h 33.052 v 40.966 h 14.438 l 30.542,-40.966 h 143.04 v 22.327 H -5.69 v 65.883 H 33.051 V 6.835 L -14.323,55.344 33.051,103.7 Z"
             style="fill:#ffffff;fill-opacity:1;fill-rule:nonzero;stroke:none"
             id="path24" /></g><g
           id="g26"
           transform="translate(395.4643,368.487)"><path
             d="m 0,0 176.581,-232.045 v 116.488 h 79.922 V 0 Z"
             style="fill:#003088;fill-opacity:1;fill-rule:nonzero;stroke:none"
             id="path28" /></g><g
           id="g30"
           transform="translate(572.0449,252.9299)"><path
             d="m 0,0 v -116.488 l -176.581,232.045 -26.961,35.571 V 115.557 -167.895 H 79.922 V 0 Z"
             style="fill:#1e5df8;fill-opacity:1;fill-rule:nonzero;stroke:none"
             id="path32" /></g><g
           id="g34"
           transform="translate(746.0703,280.6042)"><path
             d="m 0,0 c -12.303,0 -20.827,8.042 -20.827,18.576 h 10.454 c 0.965,-6.996 6.755,-8.604 10.293,-8.604 2.734,0 8.202,0.965 8.202,6.191 0,4.745 -4.584,6.675 -9.167,8.443 -7.559,2.976 -18.254,6.595 -18.254,17.29 0,9.489 8.282,15.279 18.334,15.279 11.659,0 18.173,-7.801 18.173,-14.957 H 6.916 c -0.563,3.136 -4.02,5.146 -8.042,5.146 -3.859,0 -7.076,-1.929 -7.076,-5.468 0,-3.458 3.137,-4.825 8.604,-7.318 5.87,-2.653 18.415,-5.79 18.415,-18.495 C 18.817,5.549 10.212,0 0,0"
             style="fill:#ffffff;fill-opacity:1;fill-rule:nonzero;stroke:none"
             id="path36" /></g><g
           id="g38"
           transform="translate(790.3036,280.6042)"><path
             d="m 0,0 c -11.178,0 -20.344,8.604 -20.344,20.426 0,11.981 9.489,20.586 20.746,20.586 9.168,0 16.967,-5.71 19.219,-15.118 H 8.686 c -1.69,3.296 -4.665,5.387 -8.526,5.387 -5.629,0 -10.131,-4.503 -10.131,-10.775 0,-6.273 4.502,-10.776 10.131,-10.776 3.619,0 6.434,1.85 8.203,4.826 H 19.381 C 16.807,4.986 8.523,0 0,0"
             style="fill:#ffffff;fill-opacity:1;fill-rule:nonzero;stroke:none"
             id="path40" /></g><path
           d="m 828.185,281.007 h -10.293 v 40.207 h 10.293 z m -12.063,51.464 c 0,3.861 3.137,6.835 6.916,6.835 3.699,0 6.754,-2.974 6.754,-6.835 0,-3.618 -3.055,-6.755 -6.754,-6.755 -3.779,0 -6.916,3.137 -6.916,6.755"
           style="fill:#ffffff;fill-opacity:1;fill-rule:nonzero;stroke:none"
           id="path42" /><g
           id="g44"
           transform="translate(846.4423,306.1764)"><path
             d="M 0,0 H 18.092 C 16.887,4.744 13.59,6.674 9.568,6.674 5.146,6.674 1.607,4.181 0,0 M 28.707,-8.122 H -0.645 c 1.207,-6.111 6.192,-8.363 10.536,-8.363 5.466,0 7.798,3.378 7.798,3.378 h 10.133 c -3.054,-8.042 -10.373,-12.465 -18.254,-12.465 -10.855,0 -20.343,8.283 -20.343,20.827 0,12.465 9.408,20.184 20.021,20.184 10.293,0 20.748,-7.157 19.461,-23.561"
             style="fill:#ffffff;fill-opacity:1;fill-rule:nonzero;stroke:none"
             id="path46" /></g><g
           id="g48"
           transform="translate(920.6708,302.7985)"><path
             d="m 0,0 v -21.792 h -10.695 v 19.38 c 0,1.367 0.965,11.499 -6.756,11.901 C -21.23,9.73 -27.984,7.64 -27.984,-2.895 V -21.792 H -38.6 v 40.207 h 8.204 l 1.365,-4.905 h 1.367 c 1.689,2.01 5.469,5.307 12.225,5.307 C -5.066,18.817 0,11.098 0,0"
             style="fill:#ffffff;fill-opacity:1;fill-rule:nonzero;stroke:none"
             id="path50" /></g><g
           id="g52"
           transform="translate(947.9326,280.6042)"><path
             d="m 0,0 c -11.178,0 -20.344,8.604 -20.344,20.426 0,11.981 9.489,20.586 20.746,20.586 9.168,0 16.967,-5.71 19.219,-15.118 H 8.686 c -1.69,3.296 -4.665,5.387 -8.526,5.387 -5.629,0 -10.131,-4.503 -10.131,-10.775 0,-6.273 4.502,-10.776 10.131,-10.776 3.619,0 6.434,1.85 8.203,4.826 H 19.381 C 16.807,4.986 8.523,0 0,0"
             style="fill:#ffffff;fill-opacity:1;fill-rule:nonzero;stroke:none"
             id="path54" /></g><g
           id="g56"
           transform="translate(983.6435,306.1764)"><path
             d="M 0,0 H 18.092 C 16.887,4.744 13.59,6.674 9.568,6.674 5.146,6.674 1.607,4.181 0,0 M 28.707,-8.122 H -0.645 c 1.207,-6.111 6.192,-8.363 10.536,-8.363 5.466,0 7.798,3.378 7.798,3.378 h 10.133 c -3.054,-8.042 -10.373,-12.465 -18.254,-12.465 -10.855,0 -20.343,8.283 -20.343,20.827 0,12.465 9.408,20.184 20.021,20.184 10.293,0 20.748,-7.157 19.461,-23.561"
             style="fill:#ffffff;fill-opacity:1;fill-rule:nonzero;stroke:none"
             id="path58" /></g><g
           id="g60"
           transform="translate(1065.0303,297.8932)"><path
             d="M 0,0 V 0.805 C -7.316,0 -14.555,-0.885 -14.555,-5.065 -14.555,-11.178 -0.643,-10.695 0,0 m 14.637,-9.167 v -7.72 h -2.414 c -4.662,0 -7.961,1.689 -9.327,5.147 -2.414,-3.297 -6.433,-5.549 -12.707,-5.549 -9.085,0 -14.875,4.664 -14.875,11.901 0,12.545 17.127,13.671 24.848,14.073 -0.162,4.664 -2.734,6.352 -6.836,6.352 -5.709,0 -6.111,-3.457 -6.111,-3.457 h -10.051 c 0.723,7.156 6.594,12.143 16.404,12.143 9.569,0 16.325,-4.745 16.325,-16.406 V -3.377 c 0,-4.664 1.687,-5.79 4.744,-5.79"
             style="fill:#ffffff;fill-opacity:1;fill-rule:nonzero;stroke:none"
             id="path62" /></g><g
           id="g64"
           transform="translate(1124.2217,302.7985)"><path
             d="m 0,0 v -21.792 h -10.695 v 19.38 c 0,1.367 0.965,11.499 -6.756,11.901 C -21.23,9.73 -27.984,7.64 -27.984,-2.895 V -21.792 H -38.6 v 40.207 h 8.204 l 1.365,-4.905 h 1.367 c 1.689,2.01 5.469,5.307 12.225,5.307 C -5.066,18.817 0,11.098 0,0"
             style="fill:#ffffff;fill-opacity:1;fill-rule:nonzero;stroke:none"
             id="path66" /></g><g
           id="g68"
           transform="translate(1160.249,301.11)"><path
             d="m 0,0 c 0,6.674 -3.619,10.614 -8.846,10.614 -4.906,0 -9.81,-3.538 -9.81,-10.614 0,-7.076 4.904,-10.614 9.81,-10.614 C -3.619,-10.614 0,-6.675 0,0 M 10.051,36.99 V -20.104 H 2.17 l -1.125,3.861 h -1.207 c -2.492,-2.735 -5.869,-4.263 -10.211,-4.263 -10.213,0 -18.736,8.363 -18.736,20.506 0,12.143 8.523,20.506 18.736,20.506 4.182,0 7.799,-1.448 10.373,-4.343 V 36.99 Z"
             style="fill:#ffffff;fill-opacity:1;fill-rule:nonzero;stroke:none"
             id="path70" /></g><g
           id="g72"
           transform="translate(764.0029,244.9391)"><path
             d="M 0,0 H -15.198 V -46.318 H -25.974 V 0 H -41.172 V 9.972 H 0 Z"
             style="fill:#ffffff;fill-opacity:1;fill-rule:nonzero;stroke:none"
             id="path74" /></g><g
           id="g76"
           transform="translate(771.4853,223.7907)"><path
             d="M 0,0 H 18.092 C 16.887,4.744 13.59,6.674 9.568,6.674 5.146,6.674 1.607,4.181 0,0 M 28.707,-8.123 H -0.645 c 1.207,-6.111 6.192,-8.361 10.536,-8.361 5.466,0 7.798,3.377 7.798,3.377 h 10.133 c -3.054,-8.041 -10.373,-12.465 -18.254,-12.465 -10.855,0 -20.343,8.283 -20.343,20.828 0,12.464 9.408,20.183 20.021,20.183 10.293,0 20.748,-7.157 19.461,-23.562"
             style="fill:#ffffff;fill-opacity:1;fill-rule:nonzero;stroke:none"
             id="path78" /></g><g
           id="g80"
           transform="translate(826.1728,198.2184)"><path
             d="m 0,0 c -11.178,0 -20.344,8.605 -20.344,20.426 0,11.981 9.489,20.586 20.746,20.586 9.168,0 16.967,-5.71 19.219,-15.119 H 8.686 c -1.69,3.297 -4.665,5.388 -8.526,5.388 -5.629,0 -10.131,-4.503 -10.131,-10.775 0,-6.272 4.502,-10.776 10.131,-10.776 3.619,0 6.434,1.85 8.203,4.825 H 19.379 C 16.807,4.986 8.523,0 0,0"
             style="fill:#ffffff;fill-opacity:1;fill-rule:nonzero;stroke:none"
             id="path82" /></g><g
           id="g84"
           transform="translate(890.7529,220.4137)"><path
             d="m 0,0 v -21.793 h -10.775 v 19.379 c 0,3.941 0.644,11.902 -6.594,11.902 -3.537,0 -10.373,-1.849 -10.373,-12.384 v -18.897 h -10.776 v 57.094 h 10.213 V 14.232 h 1.368 c 1.929,2.011 5.628,4.584 11.58,4.584 C -4.984,18.816 0,11.097 0,0"
             style="fill:#ffffff;fill-opacity:1;fill-rule:nonzero;stroke:none"
             id="path86" /></g><g
           id="g88"
           transform="translate(938.8466,220.4137)"><path
             d="m 0,0 v -21.793 h -10.695 v 19.379 c 0,1.367 0.965,11.5 -6.756,11.902 C -21.23,9.729 -27.984,7.639 -27.984,-2.896 V -21.793 H -38.6 v 40.207 h 8.204 l 1.365,-4.905 h 1.367 c 1.689,2.011 5.469,5.307 12.225,5.307 C -5.066,18.816 0,11.097 0,0"
             style="fill:#ffffff;fill-opacity:1;fill-rule:nonzero;stroke:none"
             id="path90" /></g><g
           id="g92"
           transform="translate(976.3232,218.7243)"><path
             d="m 0,0 c 0,6.272 -3.699,11.178 -9.811,11.178 -6.111,0 -10.212,-4.906 -10.212,-11.178 0,-6.271 4.101,-11.178 10.212,-11.178 C -3.699,-11.178 0,-6.271 0,0 m -30.557,-0.08 c 0,12.866 9.971,20.586 20.746,20.586 10.856,0 20.344,-7.801 20.344,-20.426 0,-12.785 -9.81,-20.586 -20.666,-20.586 -10.935,0 -20.424,7.801 -20.424,20.426"
             style="fill:#ffffff;fill-opacity:1;fill-rule:nonzero;stroke:none"
             id="path94" /></g><path
           d="m 1004.231,198.621 h -10.453 v 57.094 h 10.453 z"
           style="fill:#ffffff;fill-opacity:1;fill-rule:nonzero;stroke:none"
           id="path96" /><g
           id="g98"
           transform="translate(1041.7881,218.7243)"><path
             d="m 0,0 c 0,6.272 -3.699,11.178 -9.811,11.178 -6.111,0 -10.212,-4.906 -10.212,-11.178 0,-6.271 4.101,-11.178 10.212,-11.178 C -3.699,-11.178 0,-6.271 0,0 m -30.557,-0.08 c 0,12.866 9.971,20.586 20.746,20.586 10.856,0 20.344,-7.801 20.344,-20.426 0,-12.785 -9.81,-20.586 -20.666,-20.586 -10.935,0 -20.424,7.801 -20.424,20.426"
             style="fill:#ffffff;fill-opacity:1;fill-rule:nonzero;stroke:none"
             id="path100" /></g><g
           id="g102"
           transform="translate(1068.0088,225.7204)"><path
             d="m 0,0 c 0,-3.057 2.172,-5.307 6.836,-5.307 4.584,0 6.834,2.25 6.834,5.307 0,2.976 -2.25,5.066 -6.834,5.066 C 2.252,5.066 0,3.056 0,0 m 15.199,-29.994 c 0,2.17 -1.769,3.859 -6.273,3.859 -2.252,0 -5.387,0 -7.719,0.08 l -2.734,-2.894 c -0.483,-2.01 1.527,-5.307 8.603,-5.307 5.229,0 8.123,1.688 8.123,4.262 m 9.891,-0.322 c -0.322,-9.086 -8.606,-13.268 -18.174,-13.268 -12.465,0 -19.621,7.156 -17.771,15.842 l 4.584,3.699 c -2.575,1.607 -4.262,4.1 -4.262,7.076 0,3.297 2.09,5.629 4.984,7.156 -2.732,2.493 -4.099,5.872 -4.099,9.65 0,7.72 5.949,13.751 16.082,13.751 3.539,0 6.673,-0.724 9.168,-2.011 4.341,2.011 6.834,5.228 6.834,5.228 l 4.986,-6.675 c 0,0 -2.735,-1.85 -6.434,-2.976 1.528,-2.09 2.332,-4.583 2.332,-7.236 0,-7.641 -6.996,-13.752 -17.129,-13.752 -2.089,0 -4.019,0.242 -5.709,0.725 -0.642,-0.403 -1.205,-1.045 -1.205,-2.01 0,-2.897 4.422,-2.414 7.157,-2.414 h 5.629 c 8.845,0 13.267,-6.03 13.027,-12.785"
             style="fill:#ffffff;fill-opacity:1;fill-rule:nonzero;stroke:none"
             id="path104" /></g><g
           id="g106"
           transform="translate(1141.7529,238.8278)"><path
             d="m 0,0 -13.992,-41.734 c -2.252,-6.676 -4.906,-14.957 -17.047,-14.957 -7.238,0 -11.018,2.894 -12.225,4.421 l 5.067,7.159 c 0.402,-0.403 2.894,-2.494 6.273,-2.494 3.377,0 5.629,1.367 6.514,4.101 l 1.125,3.297 h -5.389 L -43.504,0 h 11.178 l 10.131,-29.271 h 1.609 L -10.775,0 Z"
             style="fill:#ffffff;fill-opacity:1;fill-rule:nonzero;stroke:none"
             id="path108" /></g><g
           id="g110"
           transform="translate(737.6269,162.3122)"><path
             d="m 0,0 v -12.543 h 21.47 v -9.891 H 0 v -23.643 h -10.775 v 33.534 22.756 H 26.296 V 0 Z"
             style="fill:#ffffff;fill-opacity:1;fill-rule:nonzero;stroke:none"
             id="path112" /></g><g
           id="g114"
           transform="translate(790.624,133.1222)"><path
             d="M 0,0 V 0.805 C -7.316,0 -14.555,-0.885 -14.555,-5.066 -14.555,-11.178 -0.643,-10.695 0,0 m 14.637,-9.166 v -7.721 h -2.414 c -4.662,0 -7.961,1.69 -9.327,5.147 -2.414,-3.297 -6.433,-5.549 -12.707,-5.549 -9.085,0 -14.875,4.664 -14.875,11.902 0,12.543 17.127,13.67 24.848,14.073 -0.162,4.664 -2.734,6.351 -6.836,6.351 -5.709,0 -6.111,-3.457 -6.111,-3.457 h -10.051 c 0.723,7.156 6.594,12.143 16.404,12.143 9.569,0 16.325,-4.744 16.325,-16.405 V -3.377 c 0,-4.664 1.687,-5.789 4.744,-5.789"
             style="fill:#ffffff;fill-opacity:1;fill-rule:nonzero;stroke:none"
             id="path116" /></g><g
           id="g118"
           transform="translate(829.0673,115.8332)"><path
             d="m 0,0 c -11.178,0 -20.344,8.605 -20.344,20.426 0,11.98 9.489,20.586 20.746,20.586 9.168,0 16.967,-5.709 19.219,-15.119 H 8.686 c -1.69,3.298 -4.665,5.388 -8.526,5.388 -5.629,0 -10.131,-4.504 -10.131,-10.775 0,-6.272 4.502,-10.776 10.131,-10.776 3.619,0 6.434,1.85 8.203,4.825 H 19.379 C 16.807,4.986 8.523,0 0,0"
             style="fill:#ffffff;fill-opacity:1;fill-rule:nonzero;stroke:none"
             id="path120" /></g><path
           d="m 866.95,116.236 h -10.293 v 40.208 h 10.293 z m -12.062,51.465 c 0,3.859 3.136,6.836 6.916,6.836 3.699,0 6.754,-2.977 6.754,-6.836 0,-3.619 -3.055,-6.754 -6.754,-6.754 -3.78,0 -6.916,3.135 -6.916,6.754"
           style="fill:#ffffff;fill-opacity:1;fill-rule:nonzero;stroke:none"
           id="path122" /><path
           d="m 886.251,116.236 h -10.453 v 57.094 h 10.453 z"
           style="fill:#ffffff;fill-opacity:1;fill-rule:nonzero;stroke:none"
           id="path124" /><path
           d="m 906.034,116.236 h -10.293 v 40.208 h 10.293 z m -12.062,51.465 c 0,3.859 3.136,6.836 6.916,6.836 3.699,0 6.754,-2.977 6.754,-6.836 0,-3.619 -3.055,-6.754 -6.754,-6.754 -3.78,0 -6.916,3.135 -6.916,6.754"
           style="fill:#ffffff;fill-opacity:1;fill-rule:nonzero;stroke:none"
           id="path126" /><g
           id="g128"
           transform="translate(943.7509,119.2101)"><path
             d="m 0,0 c 0,0 -3.377,-3.377 -9.568,-3.377 -7.721,0 -14.395,5.227 -14.395,13.35 v 18.656 h -8.041 v 7.879 h 4.02 c 2.734,0 4.584,1.85 4.584,4.746 v 8.041 h 9.73 V 37.233 H -3.539 V 28.629 H -13.67 V 10.615 c 0,-2.734 2.252,-4.824 5.147,-4.824 2.412,0 4.664,1.367 4.664,1.367 z"
             style="fill:#ffffff;fill-opacity:1;fill-rule:nonzero;stroke:none"
             id="path130" /></g><path
           d="m 958.472,116.236 h -10.293 v 40.208 h 10.293 z m -12.063,51.465 c 0,3.859 3.137,6.836 6.916,6.836 3.699,0 6.754,-2.977 6.754,-6.836 0,-3.619 -3.055,-6.754 -6.754,-6.754 -3.779,0 -6.916,3.135 -6.916,6.754"
           style="fill:#ffffff;fill-opacity:1;fill-rule:nonzero;stroke:none"
           id="path132" /><g
           id="g134"
           transform="translate(976.7275,141.4054)"><path
             d="M 0,0 H 18.092 C 16.887,4.744 13.59,6.674 9.568,6.674 5.146,6.674 1.607,4.182 0,0 M 28.707,-8.123 H -0.645 c 1.207,-6.111 6.192,-8.361 10.536,-8.361 5.466,0 7.798,3.377 7.798,3.377 h 10.133 c -3.054,-8.041 -10.373,-12.465 -18.254,-12.465 -10.855,0 -20.343,8.283 -20.343,20.828 0,12.463 9.408,20.184 20.021,20.184 10.293,0 20.748,-7.159 19.461,-23.563"
             style="fill:#ffffff;fill-opacity:1;fill-rule:nonzero;stroke:none"
             id="path136" /></g><g
           id="g138"
           transform="translate(1027.3936,148.3215)"><path
             d="m 0,0 c -3.377,0 -4.824,-1.689 -4.824,-3.379 0,-2.732 3.619,-3.537 6.031,-4.019 7.156,-1.53 14.395,-3.7 14.395,-12.223 0,-8.283 -6.836,-12.867 -15.12,-12.867 -9.246,0 -16.404,5.629 -16.886,14.152 h 9.89 c 0.242,-2.412 1.85,-5.547 6.756,-5.547 4.102,0 5.067,2.17 5.067,3.86 0,2.974 -2.815,3.859 -5.549,4.502 -4.744,1.046 -14.957,2.976 -14.957,12.142 0,7.881 7.558,11.903 15.359,11.903 9.006,0 14.957,-5.469 15.44,-12.223 H 5.711 C 5.389,-2.332 4.102,0 0,0"
             style="fill:#ffffff;fill-opacity:1;fill-rule:nonzero;stroke:none"
             id="path140" /></g><g
           id="g142"
           transform="translate(1115.5342,133.1222)"><path
             d="m 0,0 c -3.217,-10.775 -12.223,-17.289 -23.078,-17.289 -14.717,0 -25.41,12.062 -25.41,28.547 0,16.485 10.613,28.547 25.33,28.547 10.775,0 19.941,-6.513 23.158,-17.289 h -12.143 c -2.089,4.504 -5.869,6.674 -10.855,6.674 -9.168,0 -14.395,-7.477 -14.395,-17.932 0,-10.453 5.309,-17.932 14.555,-17.932 4.986,0 8.606,2.17 10.695,6.674 z"
             style="fill:#ffffff;fill-opacity:1;fill-rule:nonzero;stroke:none"
             id="path144" /></g><g
           id="g146"
           transform="translate(1150.5205,136.339)"><path
             d="m 0,0 c 0,6.271 -3.699,11.178 -9.811,11.178 -6.111,0 -10.212,-4.907 -10.212,-11.178 0,-6.271 4.101,-11.178 10.212,-11.178 C -3.699,-11.178 0,-6.271 0,0 m -30.557,-0.08 c 0,12.865 9.971,20.586 20.746,20.586 10.856,0 20.344,-7.801 20.344,-20.426 0,-12.785 -9.81,-20.586 -20.666,-20.586 -10.935,0 -20.424,7.801 -20.424,20.426"
             style="fill:#ffffff;fill-opacity:1;fill-rule:nonzero;stroke:none"
             id="path148" /></g><g
           id="g150"
           transform="translate(1206.4131,156.443)"><path
             d="m 0,0 v -40.208 h -8.041 l -1.447,4.504 h -1.045 c -1.61,-2.011 -5.147,-4.906 -11.74,-4.906 -10.696,0 -16.165,7.559 -16.165,18.817 V 0 h 10.936 v -19.379 c 0,-4.987 0.402,-11.903 7.318,-11.903 3.539,0 9.329,1.85 9.329,12.385 V 0 Z"
             style="fill:#ffffff;fill-opacity:1;fill-rule:nonzero;stroke:none"
             id="path152" /></g><g
           id="g154"
           transform="translate(1254.5068,138.0285)"><path
             d="m 0,0 v -21.793 h -10.695 v 19.379 c 0,1.367 0.965,11.5 -6.756,11.902 C -21.23,9.729 -27.984,7.639 -27.984,-2.896 V -21.793 H -38.6 v 40.208 h 8.204 l 1.365,-4.907 h 1.367 c 1.689,2.012 5.469,5.309 12.225,5.309 C -5.066,18.817 0,11.096 0,0"
             style="fill:#ffffff;fill-opacity:1;fill-rule:nonzero;stroke:none"
             id="path156" /></g><g
           id="g158"
           transform="translate(1281.7705,115.8332)"><path
             d="m 0,0 c -11.178,0 -20.344,8.605 -20.344,20.426 0,11.98 9.489,20.586 20.746,20.586 9.168,0 16.967,-5.709 19.219,-15.119 H 8.686 c -1.69,3.298 -4.665,5.388 -8.526,5.388 -5.629,0 -10.131,-4.504 -10.131,-10.775 0,-6.272 4.502,-10.776 10.131,-10.776 3.619,0 6.434,1.85 8.203,4.825 H 19.379 C 16.807,4.986 8.523,0 0,0"
             style="fill:#ffffff;fill-opacity:1;fill-rule:nonzero;stroke:none"
             id="path160" /></g><path
           d="m 1319.653,116.236 h -10.293 v 40.208 h 10.293 z m -12.062,51.465 c 0,3.859 3.137,6.836 6.916,6.836 3.699,0 6.754,-2.977 6.754,-6.836 0,-3.619 -3.055,-6.754 -6.754,-6.754 -3.779,0 -6.916,3.135 -6.916,6.754"
           style="fill:#ffffff;fill-opacity:1;fill-rule:nonzero;stroke:none"
           id="path162" /><path
           d="m 1338.954,116.236 h -10.453 v 57.094 h 10.453 z"
           style="fill:#ffffff;fill-opacity:1;fill-rule:nonzero;stroke:none"
           id="path164" /><path
           d="m 1447.815,85.035 h -5.124 v 283.452 h 5.124 z"
           style="fill:#ffffff;fill-opacity:1;fill-rule:nonzero;stroke:none"
           id="path166" /><g
           id="g168"
           transform="translate(1581.5645,115.006)"><path
             d="m 0,0 c -18.204,0 -28.905,9.717 -30.012,25.83 h 10.948 C -17.712,15.498 -11.069,9.717 0,9.717 c 8.979,0 16.605,4.058 16.605,13.776 0,10.947 -9.839,14.391 -17.958,16.851 l -4.304,1.231 c -9.226,2.952 -21.649,8.241 -21.649,23.124 0,14.636 11.808,23.862 27.429,23.862 16.359,0 27.061,-10.332 27.799,-24.354 h -11.07 c -0.862,8.118 -6.274,14.637 -16.729,14.637 -9.594,0 -16.358,-5.658 -16.358,-13.653 0,-9.594 9.716,-12.423 17.096,-14.761 L 4.675,49.201 C 12.055,46.864 27.922,41.575 27.922,23.739 27.922,7.626 15.13,0 0,0"
             style="fill:#ffffff;fill-opacity:1;fill-rule:nonzero;stroke:none"
             id="path170" /></g><g
           id="g172"
           transform="translate(1620.5059,146.6174)"><path
             d="m 0,0 c 0,18.697 12.792,32.349 30.504,32.349 13.653,0 25.584,-7.749 27.798,-22.016 H 47.478 C 45.879,17.097 39.729,22.878 30.504,22.878 18.941,22.878 10.823,12.916 10.823,0 c 0,-12.424 7.504,-22.141 19.804,-22.141 9.102,0 14.76,4.674 17.097,11.809 H 58.548 C 56.211,-23.247 45.387,-31.611 30.627,-31.611 11.931,-31.611 0,-17.958 0,0"
             style="fill:#ffffff;fill-opacity:1;fill-rule:nonzero;stroke:none"
             id="path174" /></g><path
           d="m 1689.927,177.737 h 10.701 v -61.501 h -10.701 z m -1.846,16.974 c 0,3.936 3.321,7.011 7.258,7.011 3.812,0 7.011,-3.075 7.011,-7.011 0,-3.936 -3.199,-7.134 -7.011,-7.134 -3.937,0 -7.258,3.198 -7.258,7.134"
           style="fill:#ffffff;fill-opacity:1;fill-rule:nonzero;stroke:none"
           id="path176" /><g
           id="g178"
           transform="translate(1722.9502,152.2756)"><path
             d="M 0,0 H 35.548 C 35.425,10.578 28.537,17.835 18.573,17.835 8.241,17.835 1.107,9.963 0,0 m 45.757,-7.872 h -45.88 c 0.615,-12.178 7.75,-20.542 19.188,-20.542 7.996,0 14.023,3.567 16.114,10.332 H 45.634 C 42.928,-30.259 32.719,-37.27 19.065,-37.27 c -17.465,0 -29.888,12.423 -29.888,31.366 0,19.926 12.792,32.595 29.396,32.595 14.884,0 27.43,-10.209 27.43,-30.751 0,-1.229 -0.123,-2.336 -0.246,-3.812"
             style="fill:#ffffff;fill-opacity:1;fill-rule:nonzero;stroke:none"
             id="path180" /></g><g
           id="g182"
           transform="translate(1781.2148,177.737)"><path
             d="m 0,0 h 9.717 l 0.984,-7.38 h 0.861 c 3.321,4.551 8.241,8.609 17.835,8.609 13.161,0 22.386,-8.363 22.386,-24.107 V -61.501 H 41.082 v 36.285 c 0,11.809 -6.395,16.975 -14.391,16.975 -8.364,0 -15.99,-5.412 -15.99,-18.205 V -61.501 H 0 Z"
             style="fill:#ffffff;fill-opacity:1;fill-rule:nonzero;stroke:none"
             id="path184" /></g><g
           id="g186"
           transform="translate(1852.9473,130.1349)"><path
             d="m 0,0 v 38.869 h -13.038 v 8.733 h 4.182 c 7.257,0 9.84,2.46 9.84,9.102 v 7.626 h 9.84 V 47.602 H 26.199 V 38.869 H 10.824 V 1.476 c 0,-4.428 1.722,-7.749 7.749,-7.749 1.968,0 4.182,0.369 6.151,0.984 v -8.487 c -2.214,-0.616 -5.166,-1.353 -8.98,-1.353 C 2.952,-15.129 0,-7.134 0,0"
             style="fill:#ffffff;fill-opacity:1;fill-rule:nonzero;stroke:none"
             id="path188" /></g><path
           d="m 1887.361,177.737 h 10.701 v -61.501 h -10.701 z m -1.845,16.974 c 0,3.936 3.321,7.011 7.257,7.011 3.813,0 7.011,-3.075 7.011,-7.011 0,-3.936 -3.198,-7.134 -7.011,-7.134 -3.936,0 -7.257,3.198 -7.257,7.134"
           style="fill:#ffffff;fill-opacity:1;fill-rule:nonzero;stroke:none"
           id="path190" /><g
           id="g192"
           transform="translate(1955.4287,194.7106)"><path
             d="m 0,0 c 0,3.937 3.32,7.012 7.257,7.012 3.812,0 7.011,-3.075 7.011,-7.012 0,-3.936 -3.199,-7.134 -7.011,-7.134 C 3.32,-7.134 0,-3.936 0,0 M 12.669,-78.475 H 1.845 v 52.768 h -26.938 v -52.768 h -10.824 v 52.768 h -12.546 v 8.733 h 12.546 v 10.086 c 0,10.209 6.643,15.744 16.729,15.744 3.567,0 6.027,-0.615 8.118,-1.353 l -1.845,-8.363 c -1.6,0.614 -3.198,0.737 -4.429,0.737 -5.289,0 -7.749,-2.829 -7.749,-7.749 v -9.102 h 37.762 z"
             style="fill:#ffffff;fill-opacity:1;fill-rule:nonzero;stroke:none"
             id="path194" /></g><g
           id="g196"
           transform="translate(1980.3242,146.6174)"><path
             d="m 0,0 c 0,18.697 12.792,32.349 30.504,32.349 13.653,0 25.584,-7.749 27.798,-22.016 H 47.478 C 45.879,17.097 39.729,22.878 30.504,22.878 18.941,22.878 10.823,12.916 10.823,0 c 0,-12.424 7.504,-22.141 19.804,-22.141 9.102,0 14.76,4.674 17.097,11.809 H 58.548 C 56.211,-23.247 45.387,-31.611 30.627,-31.611 11.931,-31.611 0,-17.958 0,0"
             style="fill:#ffffff;fill-opacity:1;fill-rule:nonzero;stroke:none"
             id="path198" /></g><g
           id="g200"
           transform="translate(2123.7402,115.006)"><path
             d="m 0,0 c -24.723,0 -40.836,18.45 -40.836,43.912 0,25.584 16.236,44.649 40.836,44.649 18.327,0 32.719,-10.332 35.794,-28.167 H 23.985 C 21.033,71.095 12.547,78.229 0.123,78.229 c -18.081,0 -29.643,-15.498 -29.643,-34.317 0,-19.312 12.054,-33.58 29.52,-33.58 12.915,0 22.018,7.011 25.339,17.097 H 37.146 C 33.948,10.824 19.065,0 0,0"
             style="fill:#ffffff;fill-opacity:1;fill-rule:nonzero;stroke:none"
             id="path202" /></g><g
           id="g204"
           transform="translate(2221.8818,146.9865)"><path
             d="m 0,0 c 0,12.3 -8.241,22.509 -20.295,22.509 -12.178,0 -20.05,-10.209 -20.05,-22.509 0,-12.178 7.995,-22.51 20.05,-22.51 C -8.241,-22.51 0,-12.178 0,0 m -51.168,0 c 0,18.45 12.915,31.98 30.873,31.98 17.712,0 30.996,-13.652 30.996,-31.98 0,-18.45 -13.161,-31.98 -30.996,-31.98 -17.712,0 -30.873,13.775 -30.873,31.98"
             style="fill:#ffffff;fill-opacity:1;fill-rule:nonzero;stroke:none"
             id="path206" /></g><g
           id="g208"
           transform="translate(2244.5254,177.737)"><path
             d="m 0,0 h 9.717 l 0.984,-7.38 h 0.861 c 3.198,4.674 8.241,8.609 16.605,8.609 10.086,0 14.76,-6.149 16.729,-10.824 h 0.737 c 2.952,5.289 8.487,10.824 18.942,10.824 11.686,0 20.172,-7.133 20.172,-21.524 V -61.501 H 73.924 v 39.114 c 0,9.718 -5.781,14.146 -12.424,14.146 -8.118,0 -13.775,-6.397 -13.775,-15.744 V -61.501 H 36.9 v 38.254 c 0,10.086 -5.658,15.006 -12.423,15.006 -6.519,0 -13.776,-4.797 -13.776,-15.498 V -61.501 H 0 Z"
             style="fill:#ffffff;fill-opacity:1;fill-rule:nonzero;stroke:none"
             id="path210" /></g><g
           id="g212"
           transform="translate(2391.9893,146.8634)"><path
             d="m 0,0 c 0,13.53 -7.749,22.632 -18.941,22.632 -11.071,0 -18.328,-9.102 -18.328,-22.632 0,-13.284 7.257,-22.387 18.328,-22.387 C -7.749,-22.387 0,-13.284 0,0 m 10.701,0 c 0,-19.558 -12.054,-31.857 -28.29,-31.857 -10.332,0 -16.605,5.043 -19.68,9.347 V -55.229 H -47.97 v 86.103 h 8.856 l 0.984,-8.734 h 0.738 c 3.076,4.305 9.102,9.963 19.803,9.963 16.483,0 28.29,-12.915 28.29,-32.103"
             style="fill:#ffffff;fill-opacity:1;fill-rule:nonzero;stroke:none"
             id="path214" /></g><g
           id="g216"
           transform="translate(2466.2568,116.2355)"><path
             d="m 0,0 h -9.717 l -0.984,7.38 h -0.862 c -3.32,-4.551 -8.24,-8.609 -17.834,-8.609 -13.162,0 -22.386,8.364 -22.386,24.108 v 38.622 h 10.701 V 25.216 c 0,-11.809 6.395,-16.975 14.391,-16.975 8.364,0 15.99,5.412 15.99,18.204 V 61.501 H 0 Z"
             style="fill:#ffffff;fill-opacity:1;fill-rule:nonzero;stroke:none"
             id="path218" /></g><g
           id="g220"
           transform="translate(2487.6201,130.1349)"><path
             d="m 0,0 v 38.869 h -13.038 v 8.733 h 4.182 c 7.257,0 9.84,2.46 9.84,9.102 v 7.626 h 9.84 V 47.602 H 26.199 V 38.869 H 10.824 V 1.476 c 0,-4.428 1.722,-7.749 7.749,-7.749 1.968,0 4.182,0.369 6.151,0.984 v -8.487 c -2.214,-0.616 -5.166,-1.353 -8.98,-1.353 C 2.952,-15.129 0,-7.134 0,0"
             style="fill:#ffffff;fill-opacity:1;fill-rule:nonzero;stroke:none"
             id="path222" /></g><path
           d="m 2522.034,177.737 h 10.701 v -61.501 h -10.701 z m -1.846,16.974 c 0,3.936 3.322,7.011 7.258,7.011 3.813,0 7.011,-3.075 7.011,-7.011 0,-3.936 -3.198,-7.134 -7.011,-7.134 -3.936,0 -7.258,3.198 -7.258,7.134"
           style="fill:#ffffff;fill-opacity:1;fill-rule:nonzero;stroke:none"
           id="path224" /><g
           id="g226"
           transform="translate(2547.3955,177.737)"><path
             d="m 0,0 h 9.717 l 0.984,-7.38 h 0.861 c 3.321,4.551 8.241,8.609 17.835,8.609 13.162,0 22.386,-8.363 22.386,-24.107 V -61.501 H 41.082 v 36.285 c 0,11.809 -6.396,16.975 -14.391,16.975 -8.364,0 -15.99,-5.412 -15.99,-18.205 V -61.501 H 0 Z"
             style="fill:#ffffff;fill-opacity:1;fill-rule:nonzero;stroke:none"
             id="path228" /></g><g
           id="g230"
           transform="translate(2649.9639,157.8102)"><path
             d="m 0,0 c 0,7.626 -4.92,12.915 -12.792,12.915 -7.872,0 -13.161,-5.289 -13.161,-12.915 0,-7.134 5.289,-12.669 13.161,-12.669 C -4.92,-12.669 0,-7.134 0,0 m -8.118,-38.746 h -10.823 l -10.456,-8.733 c 1.476,-5.78 6.15,-11.438 17.097,-11.438 8.487,0 16.36,3.321 16.36,11.07 0,7.134 -7.012,9.101 -12.178,9.101 M 6.52,12.055 C 8.979,8.61 10.332,4.552 10.332,0 c 0,-12.916 -9.963,-20.911 -23.124,-20.911 -4.059,0 -7.749,0.739 -11.07,2.092 -2.706,-1.353 -4.059,-3.198 -4.059,-5.535 0,-3.813 3.321,-5.658 8.857,-5.658 h 12.053 c 13.777,0 21.403,-6.52 21.403,-17.344 0,-13.038 -11.071,-20.049 -26.692,-20.049 -18.081,0 -26.568,9.594 -27.798,21.033 l 10.332,8.734 c -4.797,1.721 -7.995,5.781 -7.995,11.192 0,5.412 3.69,9.226 7.872,11.44 -4.059,3.69 -6.396,8.856 -6.396,15.006 0,12.178 9.225,21.156 23.124,21.156 5.412,0 10.209,-1.352 14.022,-3.812 3.691,1.844 7.626,5.412 9.963,8.487 l 6.028,-6.396 C 14.761,17.221 10.824,14.146 6.52,12.055"
             style="fill:#ffffff;fill-opacity:1;fill-rule:nonzero;stroke:none"
             id="path232" /></g></g></g></g></svg>
